<svg width="426" height="110" viewBox="0 0 426 110" fill="none" xmlns="http://www.w3.org/2000/svg">
<path d="M28.05 109.8C22.85 109.8 17.85 109.1 13.05 107.7C8.25 106.2 3.95 104.15 0.15 101.55V83.4C2.75 90.1 6.7 95.2 12 98.7C17.4 102.1 23 103.8 28.8 103.8C34.6 103.8 39.45 101.9 43.35 98.1C47.25 94.2 49.2 89.4 49.2 83.7C49.2 79.9 48.4 76.65 46.8 73.95C45.3 71.25 42.85 68.75 39.45 66.45C36.05 64.05 31.25 61.4 25.05 58.5C16.35 54.5 10 50.35 6 46.05C2.1 41.65 0.15 36.35 0.15 30.15C0.15 24.85 1.4 20.15 3.9 16.05C6.5 11.85 9.95 8.64999 14.25 6.44999C18.65 4.14999 23.45 2.99999 28.65 2.99999C33.15 2.99999 37.55 3.64999 41.85 4.94999C46.15 6.15 50.15 7.9 53.85 10.2V26.4C51.45 20.9 47.8 16.65 42.9 13.65C38.1 10.55 33.2 9 28.2 9C22.5 9 17.9 10.85 14.4 14.55C10.9 18.25 9.15 22.65 9.15 27.75C9.15 31.45 10.2 34.65 12.3 37.35C14.4 39.95 16.95 42.15 19.95 43.95C23.05 45.75 27.35 47.95 32.85 50.55C38.45 53.25 43.05 55.75 46.65 58.05C50.25 60.35 53.25 63.35 55.65 67.05C58.05 70.75 59.25 75.25 59.25 80.55C59.25 86.55 57.8 91.75 54.9 96.15C52.1 100.55 48.3 103.95 43.5 106.35C38.8 108.65 33.65 109.8 28.05 109.8ZM144.648 32.7C144.648 38.5 143.248 43.7 140.448 48.3C137.748 52.8 133.848 56.35 128.748 58.95C123.648 61.55 117.648 62.85 110.748 62.85C106.548 62.85 102.048 62.4 97.248 61.5V94.2C97.248 98.1 97.748 101.1 98.748 103.2C99.748 105.2 100.848 106.55 102.048 107.25C103.248 107.95 103.848 108.2 103.848 108H79.998C79.998 108.2 80.598 107.95 81.798 107.25C82.998 106.55 84.048 105.2 84.948 103.2C85.948 101.2 86.448 98.2 86.448 94.2V19.05C86.448 15.05 85.948 12 84.948 9.89999C84.048 7.8 82.998 6.4 81.798 5.69999C80.598 4.89999 79.998 4.59999 79.998 4.8H109.398C114.498 4.8 118.698 5.14999 121.998 5.84999C125.298 6.45 128.198 7.4 130.698 8.69999C135.198 11 138.648 14.35 141.048 18.75C143.448 23.05 144.648 27.7 144.648 32.7ZM133.098 34.65C133.098 27.55 130.898 21.8 126.498 17.4C122.098 13 116.248 10.8 108.948 10.8H97.248V55.65C101.548 56.45 106.048 56.85 110.748 56.85C117.748 56.85 123.198 54.85 127.098 50.85C131.098 46.75 133.098 41.35 133.098 34.65ZM176.242 67.95L166.642 91.8C165.142 95.5 164.392 98.55 164.392 100.95C164.392 104.25 165.892 106.6 168.892 108H147.442C148.442 108 149.892 107 151.792 105C153.692 103 155.892 99.05 158.392 93.15L197.542 -4.29153e-06L236.392 93.6C238.592 99 240.692 102.7 242.692 104.7C244.792 106.7 246.442 107.8 247.642 108H222.742C225.242 106.8 226.492 104.95 226.492 102.45C226.492 100.35 225.692 97.35 224.092 93.45L213.592 67.95H176.242ZM211.192 61.8L194.842 21.75L178.792 61.8H211.192ZM343.263 98.85C339.463 101.95 334.513 104.55 328.413 106.65C322.313 108.75 316.163 109.8 309.963 109.8C300.663 109.8 292.013 107.65 284.013 103.35C276.013 99.05 269.563 92.85 264.663 84.75C259.863 76.65 257.463 67.15 257.463 56.25C257.463 46.05 259.663 36.9 264.063 28.8C268.563 20.7 274.913 14.4 283.113 9.89999C291.413 5.29999 301.063 2.99999 312.063 2.99999C323.763 2.99999 334.163 5.54999 343.263 10.65V27.3C340.163 21.8 335.663 17.45 329.763 14.25C323.863 10.95 317.563 9.29999 310.863 9.29999C302.363 9.29999 294.963 11.3 288.663 15.3C282.463 19.3 277.713 24.8 274.413 31.8C271.113 38.7 269.463 46.45 269.463 55.05C269.463 64.75 271.313 73.2 275.013 80.4C278.813 87.6 283.913 93.15 290.313 97.05C296.713 100.85 303.863 102.75 311.763 102.75C324.463 102.75 334.963 99.05 343.263 91.65V98.85ZM366.229 108C366.229 108.3 366.829 108.1 368.029 107.4C369.229 106.6 370.279 105.1 371.179 102.9C372.179 100.6 372.679 97.3 372.679 93V19.35C372.679 15.25 372.179 12.15 371.179 10.05C370.279 7.85 369.229 6.35 368.029 5.55C366.829 4.74999 366.229 4.49999 366.229 4.8H420.529V19.8C418.729 13.8 413.329 10.8 404.329 10.8H383.479V53.4H409.279C411.279 53.4 412.979 53.1 414.379 52.5C415.779 51.8 416.829 51.1 417.529 50.4C418.229 49.7 418.629 49.25 418.729 49.05V63.6C418.629 63.4 418.229 62.95 417.529 62.25C416.829 61.55 415.779 60.9 414.379 60.3C413.079 59.7 411.429 59.4 409.429 59.4H383.479V102H406.879C411.379 102 415.229 101.1 418.429 99.3C421.729 97.4 424.079 95 425.479 92.1L422.779 108H366.229Z" fill="white"/>
</svg>
